<svg class="w-[70px]" width="85" height="22" viewBox="0 0 85 22" fill="none" xmlns="http://www.w3.org/2000/svg"><g clip-path="url(#clip0_2549_69)"><path d="M24.6113 5.48633C25.8789 5.48633 26.9102 4.51953 26.9102 3.31641C26.9102 2.11328 25.8789 1.14648 24.6113 1.14648C23.3438 1.14648 22.3125 2.11328 22.3125 3.31641C22.3125 4.50879 23.3438 5.48633 24.6113 5.48633ZM22.7314 6.42091H26.4912V16.25H22.7314V6.42091Z" fill="#BBC3CF"></path><path d="M20.8731 9.2893C20.9053 9.30004 20.9268 9.2893 20.9268 9.25707V6.76488C20.9268 6.73266 20.9053 6.70043 20.8731 6.67895C20.8731 6.67895 20.3789 6.35668 18.875 6.27074C18.7998 6.22777 17.4785 6.21703 17.124 6.27074C11.6455 6.71117 11.4414 10.675 11.4414 10.8469V11.8137C11.4414 11.9319 11.4414 15.9817 17.124 16.3362C17.6826 16.3792 18.7676 16.3362 18.875 16.3362C20.1856 16.3362 21.0879 15.9387 21.0879 15.9387C21.1201 15.928 21.1416 15.8958 21.1416 15.8635V13.5325C21.1416 13.5002 21.1201 13.4895 21.0986 13.511C21.0986 13.511 20.6904 13.8333 18.9072 14.0159C18.4024 14.0696 18.1553 14.0481 17.9727 14.0159C15.4375 13.5862 15.3193 11.7385 15.3193 11.7385C15.3193 11.7063 15.3086 11.6526 15.3086 11.6311V10.9221C15.3086 10.8899 15.3086 10.8362 15.3193 10.8147C15.3193 10.8147 15.4912 8.82739 17.9727 8.61254H18.9072C19.9922 8.75219 20.8731 9.2893 20.8731 9.2893Z" fill="#BBC3CF"></path><path d="M1 16.2179C1 16.2501 1.02148 16.2716 1.05371 16.2716H4.7168C4.74903 16.2716 4.77051 16.2501 4.77051 16.2179V13.3605C4.77051 13.3282 4.792 13.3067 4.82422 13.3067C4.82422 13.3067 10.6787 13.7257 10.6787 9.80479C10.6787 6.70029 7.00489 6.36728 5.80176 6.42099C5.78028 6.42099 1.05371 6.42099 1.05371 6.42099C1.02148 6.42099 1 6.44248 1 6.47471V16.2179ZM4.70606 11.1261V8.55869H5.6084C5.6084 8.55869 6.90821 8.6124 7.01563 9.50401C7.03712 9.56846 7.03712 10.0089 7.01563 10.0304C6.84376 11.0724 5.71583 11.1261 5.71583 11.1261H4.70606Z" fill="#BBC3CF"></path><path d="M24.7188 20.9934C25.0196 20.9934 25.2559 20.9934 25.6426 20.8215C26.9747 20.1233 31.4756 9.13399 36.2237 5.75019C36.2559 5.72871 36.2881 5.69648 36.3096 5.66426C36.3419 5.62129 36.3419 5.57832 36.3419 5.57832C36.3419 5.57832 36.3419 5.35273 35.6436 5.35273C31.4219 5.23457 27.0284 14.0969 24.7188 17.5988C24.6866 17.6418 24.5362 17.5988 24.5362 17.5988C24.5362 17.5988 22.9893 15.7727 21.6465 15.0744C21.6143 15.0637 21.4639 15.01 21.3028 15.0207C21.1954 15.0207 20.5723 15.1496 20.2823 15.4504C19.9385 15.8156 19.9493 16.0197 19.9493 16.4602C19.9493 16.4924 19.9707 16.6428 20.0137 16.718C20.3467 17.2981 21.8399 19.3606 23.0752 20.4992C23.2579 20.6389 23.5479 20.9934 24.7188 20.9934Z" fill="#BBC3CF"></path><path d="M45.1325 11V0.531809H49.3836C52.5393 0.531809 54.4037 2.35993 54.4037 5.68973V5.70424C54.4037 9.04855 52.5393 11 49.3836 11H45.1325ZM47.7949 8.85268H49.0354C50.7693 8.85268 51.6978 7.80078 51.6978 5.7115V5.69699C51.6978 3.73828 50.7112 2.67913 49.0354 2.67913H47.7949V8.85268ZM59.6394 11.1886C57.035 11.1886 55.3883 10.0352 55.2722 8.03292L55.2649 7.90234H57.7387L57.7532 7.98214C57.8838 8.65681 58.6673 9.09933 59.6902 9.09933C60.7493 9.09933 61.4022 8.64955 61.4022 7.99665V7.9894C61.4022 7.39453 60.9379 7.11886 59.7119 6.87946L58.6383 6.67634C56.5635 6.29185 55.4681 5.26897 55.4681 3.66574V3.65848C55.4681 1.64174 57.2164 0.343193 59.6176 0.343193C62.2437 0.343193 63.7309 1.57645 63.8252 3.47712L63.8325 3.62946H61.3587L61.3514 3.54967C61.2716 2.86049 60.597 2.43248 59.6394 2.43248C58.66 2.43248 58.1087 2.875 58.1087 3.47712V3.48438C58.1087 4.05022 58.602 4.34766 59.7264 4.55804L60.8001 4.76116C63.02 5.18917 64.0501 6.08873 64.0501 7.76451V7.77176C64.0501 9.86105 62.4106 11.1886 59.6394 11.1886ZM69.2277 11.1886C66.6233 11.1886 64.9766 10.0352 64.8605 8.03292L64.8532 7.90234H67.327L67.3415 7.98214C67.4721 8.65681 68.2556 9.09933 69.2785 9.09933C70.3376 9.09933 70.9905 8.64955 70.9905 7.99665V7.9894C70.9905 7.39453 70.5262 7.11886 69.3002 6.87946L68.2266 6.67634C66.1518 6.29185 65.0564 5.26897 65.0564 3.66574V3.65848C65.0564 1.64174 66.8047 0.343193 69.2059 0.343193C71.832 0.343193 73.3192 1.57645 73.4135 3.47712L73.4208 3.62946H70.947L70.9397 3.54967C70.8599 2.86049 70.1853 2.43248 69.2277 2.43248C68.2483 2.43248 67.697 2.875 67.697 3.47712V3.48438C67.697 4.05022 68.1903 4.34766 69.3147 4.55804L70.3884 4.76116C72.6083 5.18917 73.6384 6.08873 73.6384 7.76451V7.77176C73.6384 9.86105 71.9989 11.1886 69.2277 11.1886Z" fill="#5F6979"></path><path d="M46.9782 21.8004C45.5181 21.8004 44.6013 20.8247 44.6013 19.2159V19.2124C44.6013 17.6036 45.5216 16.6348 46.9782 16.6348C48.1891 16.6348 49.0575 17.3995 49.1544 18.4582L49.1579 18.4893H48.1407L48.1268 18.4305C48.0092 17.8804 47.6009 17.5206 46.9782 17.5206C46.179 17.5206 45.6669 18.1641 45.6669 19.209V19.2124C45.6669 20.2642 46.179 20.9146 46.9782 20.9146C47.5802 20.9146 48.0023 20.5687 48.1372 19.977L48.1441 19.9424H49.1613L49.1579 19.9805C49.061 21.0427 48.1857 21.8004 46.9782 21.8004ZM52.0181 21.8004C50.5339 21.8004 49.6101 20.8074 49.6101 19.2193V19.2124C49.6101 17.6244 50.5408 16.6348 52.0181 16.6348C53.4989 16.6348 54.4262 17.6278 54.4262 19.2124V19.2193C54.4262 20.8074 53.5024 21.8004 52.0181 21.8004ZM52.0181 20.9146C52.8485 20.9146 53.3606 20.2538 53.3606 19.2193V19.2124C53.3606 18.171 52.8381 17.5206 52.0181 17.5206C51.2016 17.5206 50.6757 18.1676 50.6757 19.2124V19.2193C50.6757 20.2642 51.1982 20.9146 52.0181 20.9146ZM55.0583 21.7139V16.7213H56.2658L57.6843 20.3092H57.7051L59.1236 16.7213H60.3311V21.7139H59.4004V18.3371H59.3693L58.0234 21.7139H57.366L56.0167 18.3371H55.989V21.7139H55.0583ZM61.1189 21.7139V16.7213H63.1256C64.1774 16.7213 64.8798 17.3995 64.8798 18.427V18.434C64.8798 19.4615 64.1774 20.1396 63.1256 20.1396H62.1638V21.7139H61.1189ZM62.8696 17.5482H62.1638V19.3231H62.8696C63.4682 19.3231 63.8211 19.0048 63.8211 18.4374V18.4305C63.8211 17.8631 63.4682 17.5482 62.8696 17.5482ZM65.4566 21.7139V16.7213H66.5014V20.8524H68.6846V21.7139H65.4566ZM69.2614 21.7139V16.7213H70.3062V21.7139H69.2614ZM70.7758 21.7139L72.5195 16.7213H73.7478L75.488 21.7139H74.3913L74.0142 20.5029H72.2497L71.8725 21.7139H70.7758ZM73.1215 17.6901L72.4918 19.721H73.772L73.1423 17.6901H73.1215ZM75.9576 21.7139V16.7213H76.871L79.1268 19.9667H79.1475V16.7213H80.1889V21.7139H79.2825L77.0198 18.4443H76.999V21.7139H75.9576ZM82.1739 21.7139V17.5828H80.7311V16.7213H84.665V17.5828H83.2188V21.7139H82.1739Z" fill="#BBC3CF"></path></g><defs><clipPath id="clip0_2549_69"><rect width="85" height="22" fill="white"></rect></clipPath></defs></svg>