<svg class="w-[70px]" width="75" height="27" viewBox="0 0 75 27" fill="none" xmlns="http://www.w3.org/2000/svg"><g clip-path="url(#clip0_2549_57)"><path d="M39.9581 14.1886C36.7299 14.1886 34.7857 12.1936 34.7857 8.74777V8.74051C34.7857 5.34542 36.7372 3.34319 39.8929 3.34319C42.4609 3.34319 44.3108 4.85212 44.5865 6.88337L44.601 6.97042H41.9676L41.9459 6.89788C41.6702 6.04911 40.923 5.54855 39.9001 5.54855C38.3912 5.54855 37.4989 6.68025 37.4989 8.7115V8.71875C37.4989 10.7935 38.4855 11.9833 40.0162 11.9833C41.2204 11.9833 42.0474 11.3304 42.1345 10.2785L42.1417 10.1479H40.0452V8.26172H44.7098V9.57478C44.7098 12.4403 42.9397 14.1886 39.9581 14.1886ZM45.941 14V3.53181H50.1921C53.3478 3.53181 55.2122 5.35993 55.2122 8.68973V8.70424C55.2122 12.0485 53.3478 14 50.1921 14H45.941ZM48.6034 11.8527H49.8439C51.5777 11.8527 52.5063 10.8008 52.5063 8.7115V8.69699C52.5063 6.73828 51.5197 5.67913 49.8439 5.67913H48.6034V11.8527ZM56.4143 14V3.53181H60.8758C63.2118 3.53181 64.7207 4.99721 64.7207 7.23884V7.25335C64.7207 9.49498 63.2118 10.9314 60.8758 10.9314H59.0767V14H56.4143ZM60.2374 5.57031H59.0767V8.92913H60.2374C61.3619 8.92913 62.0293 8.34152 62.0293 7.25335V7.23884C62.0293 6.15067 61.3619 5.57031 60.2374 5.57031ZM65.814 14V3.53181H70.3481C72.8799 3.53181 74.309 4.78683 74.309 7.0067V7.02121C74.309 8.36328 73.6126 9.524 72.5244 9.99554L74.621 14H71.6321L69.833 10.3945H68.4764V14H65.814ZM68.4764 8.46484H70.0506C70.9937 8.46484 71.5958 7.899 71.5958 7.01395V6.99944C71.5958 6.12165 70.972 5.5413 70.0361 5.5413H68.4764V8.46484Z" fill="#5F6979"></path><path d="M36.9215 24.8004C35.4615 24.8004 34.5446 23.8247 34.5446 22.2159V22.2124C34.5446 20.6036 35.465 19.6348 36.9215 19.6348C38.1325 19.6348 39.0009 20.3995 39.0978 21.4582L39.1012 21.4893H38.084L38.0702 21.4305C37.9526 20.8804 37.5443 20.5206 36.9215 20.5206C36.1223 20.5206 35.6103 21.1641 35.6103 22.209V22.2124C35.6103 23.2642 36.1223 23.9146 36.9215 23.9146C37.5235 23.9146 37.9456 23.5687 38.0806 22.977L38.0875 22.9424H39.1047L39.1012 22.9805C39.0044 24.0427 38.129 24.8004 36.9215 24.8004ZM41.9615 24.8004C40.4772 24.8004 39.5535 23.8074 39.5535 22.2193V22.2124C39.5535 20.6244 40.4842 19.6348 41.9615 19.6348C43.4423 19.6348 44.3695 20.6278 44.3695 22.2124V22.2193C44.3695 23.8074 43.4458 24.8004 41.9615 24.8004ZM41.9615 23.9146C42.7919 23.9146 43.3039 23.2538 43.3039 22.2193V22.2124C43.3039 21.171 42.7815 20.5206 41.9615 20.5206C41.145 20.5206 40.6191 21.1676 40.6191 22.2124V22.2193C40.6191 23.2642 41.1415 23.9146 41.9615 23.9146ZM45.0017 24.7139V19.7213H46.2092L47.6277 23.3092H47.6485L49.067 19.7213H50.2745V24.7139H49.3438V21.3371H49.3126L47.9668 24.7139H47.3094L45.9601 21.3371H45.9324V24.7139H45.0017ZM51.0623 24.7139V19.7213H53.069C54.1208 19.7213 54.8231 20.3995 54.8231 21.427V21.434C54.8231 22.4615 54.1208 23.1396 53.069 23.1396H52.1072V24.7139H51.0623ZM52.813 20.5482H52.1072V22.3231H52.813C53.4115 22.3231 53.7644 22.0048 53.7644 21.4374V21.4305C53.7644 20.8631 53.4115 20.5482 52.813 20.5482ZM55.3999 24.7139V19.7213H56.4448V23.8524H58.6279V24.7139H55.3999ZM59.2047 24.7139V19.7213H60.2496V24.7139H59.2047ZM60.7191 24.7139L62.4629 19.7213H63.6911L65.4314 24.7139H64.3346L63.9575 23.5029H62.193L61.8159 24.7139H60.7191ZM63.0649 20.6901L62.4352 22.721H63.7153L63.0856 20.6901H63.0649ZM65.9009 24.7139V19.7213H66.8143L69.0701 22.9667H69.0909V19.7213H70.1323V24.7139H69.2258L66.9631 21.4443H66.9424V24.7139H65.9009ZM72.1173 24.7139V20.5828H70.6745V19.7213H74.6083V20.5828H73.1621V24.7139H72.1173Z" fill="#BBC3CF"></path><path d="M13.2463 0.494793L13.6822 1.42386C13.6987 1.45822 13.731 1.48226 13.7687 1.48838L14.7526 1.6384C14.795 1.64487 14.8302 1.67451 14.8439 1.71519C14.8575 1.75587 14.8471 1.80075 14.8171 1.83142L14.098 2.56835C14.0729 2.59452 14.0614 2.63084 14.0669 2.6667L14.2357 3.70143C14.2426 3.74455 14.2244 3.78787 14.1888 3.81305C14.1531 3.83824 14.1062 3.84088 14.0679 3.81989L13.1983 3.33911C13.1638 3.3203 13.1221 3.3203 13.0876 3.33911L12.2185 3.81989C12.1802 3.84088 12.1332 3.83824 12.0976 3.81305C12.0619 3.78787 12.0437 3.74455 12.0506 3.70143L12.219 2.6667C12.2245 2.63084 12.213 2.59452 12.1879 2.56835L11.4688 1.82956C11.4388 1.79888 11.4285 1.75401 11.4421 1.71333C11.4556 1.67265 11.4909 1.64296 11.5333 1.63653L12.5173 1.48651C12.5549 1.48045 12.5872 1.45635 12.6037 1.422L13.0397 0.492927C13.0586 0.452819 13.0992 0.427375 13.1436 0.427738C13.1879 0.428153 13.228 0.454322 13.2463 0.494793Z" fill="#BBC3CF"></path><path d="M13.2463 23.3668L13.6823 24.2958C13.6988 24.3302 13.7311 24.3542 13.7687 24.3604L14.7527 24.5104C14.795 24.5169 14.8303 24.5465 14.8439 24.5872C14.8575 24.6278 14.8472 24.6727 14.8172 24.7034L14.0981 25.4403C14.073 25.4665 14.0615 25.5028 14.067 25.5387L14.2358 26.5734C14.2427 26.6165 14.2245 26.6598 14.1888 26.685C14.1531 26.7102 14.1062 26.7129 14.0679 26.6919L13.1988 26.2111C13.1643 26.1923 13.1226 26.1923 13.0881 26.2111L12.219 26.6919C12.1807 26.7129 12.1337 26.7102 12.0981 26.685C12.0624 26.6598 12.0442 26.6165 12.0511 26.5734L12.2199 25.5387C12.2254 25.5028 12.2139 25.4665 12.1888 25.4403L11.4688 24.7015C11.4388 24.6709 11.4285 24.626 11.4421 24.5853C11.4556 24.5446 11.4909 24.5149 11.5333 24.5085L12.5173 24.3585C12.5549 24.3524 12.5872 24.3283 12.6037 24.294L13.0397 23.3649C13.0586 23.3248 13.0992 23.2994 13.1436 23.2997C13.1879 23.3001 13.2281 23.3263 13.2463 23.3668Z" fill="#BBC3CF"></path><path d="M7.67607 2.04144L8.11109 2.97051C8.12752 3.00497 8.15986 3.02906 8.19753 3.03502L9.18148 3.18504C9.22387 3.19152 9.2591 3.22116 9.27273 3.26184C9.28631 3.30252 9.276 3.34739 9.24599 3.37807L8.52783 4.11686C8.50233 4.14282 8.49078 4.17935 8.49673 4.21521L8.66551 5.24994C8.67261 5.29321 8.65432 5.33669 8.61846 5.36193C8.5826 5.38716 8.5355 5.38965 8.49715 5.3684L7.62803 4.88762C7.59352 4.86881 7.55186 4.86881 7.51735 4.88762L6.64823 5.3684C6.60988 5.38965 6.56278 5.38716 6.52692 5.36193C6.49106 5.33669 6.47282 5.29321 6.47987 5.24994L6.6473 4.2134C6.6532 4.17759 6.6418 4.14116 6.61667 4.11505L5.89804 3.37812C5.86804 3.34739 5.85772 3.30241 5.87146 3.26173C5.88514 3.221 5.92053 3.19142 5.96302 3.18509L6.94697 3.03508C6.98454 3.02917 7.01677 3.00502 7.03299 2.97056L7.47076 2.04149C7.48999 2.00231 7.52978 1.97744 7.57347 1.97744C7.61699 1.97739 7.65684 2.00221 7.67607 2.04144Z" fill="#BBC3CF"></path><path d="M19.1119 21.849L19.547 22.7803C19.5634 22.8148 19.5957 22.8389 19.6334 22.8448L20.6173 22.9953C20.6598 23.0016 20.6951 23.0312 20.7087 23.0718C20.7223 23.1125 20.712 23.1573 20.6819 23.1879L19.9637 23.9239C19.9381 23.9496 19.9266 23.9861 19.9326 24.0218L20.1014 25.0565C20.1085 25.0998 20.0902 25.1433 20.0543 25.1685C20.0185 25.1938 19.9714 25.1963 19.933 25.175L19.0639 24.6947C19.0295 24.6755 18.9876 24.6755 18.9532 24.6947L18.0841 25.175C18.0457 25.1963 17.9986 25.1938 17.9628 25.1685C17.9269 25.1433 17.9087 25.0998 17.9157 25.0565L18.0845 24.0218C18.0905 23.9862 18.0791 23.9498 18.0539 23.9239L17.3343 23.1865C17.3046 23.1558 17.2945 23.111 17.3081 23.0705C17.3218 23.0299 17.357 23.0004 17.3993 22.994L18.3832 22.8435C18.4208 22.8376 18.453 22.8134 18.4693 22.779L18.9052 21.8499C18.9242 21.8102 18.9642 21.7848 19.0083 21.7846C19.0523 21.7844 19.0926 21.8094 19.1119 21.849Z" fill="#BBC3CF"></path><path d="M3.52423 5.99232L3.96018 6.92139C3.97671 6.95574 4.009 6.97979 4.04662 6.9859L5.03057 7.13592C5.07295 7.1424 5.10819 7.17204 5.12182 7.21272C5.13545 7.2534 5.12509 7.29827 5.09508 7.32895L4.37598 8.06587C4.3509 8.09204 4.3394 8.12837 4.34489 8.16423L4.51367 9.19896C4.52061 9.24207 4.50237 9.28539 4.46672 9.31058C4.43101 9.33576 4.38412 9.3384 4.34582 9.31742L3.47671 8.83664C3.4422 8.81782 3.40053 8.81782 3.36602 8.83664L2.4969 9.31742C2.45861 9.3384 2.41166 9.33576 2.37601 9.31058C2.34031 9.28539 2.32212 9.24207 2.32906 9.19896L2.49784 8.16423C2.50333 8.12837 2.49183 8.09204 2.46675 8.06587L1.74671 7.32802C1.71723 7.29729 1.70728 7.25277 1.7208 7.21241C1.73433 7.17204 1.7692 7.14255 1.81123 7.13587L2.79518 6.98585C2.8328 6.97979 2.86508 6.95569 2.88161 6.92134L3.31757 5.99226C3.33622 5.95195 3.37654 5.9262 3.42095 5.9262C3.46536 5.9262 3.50557 5.95205 3.52423 5.99232Z" fill="#BBC3CF"></path><path d="M23.3324 17.4283L23.7683 18.3573C23.7846 18.3917 23.8167 18.4159 23.8544 18.4218L24.8383 18.5719C24.8808 18.5782 24.9161 18.6078 24.9299 18.6485C24.9436 18.6892 24.9333 18.7342 24.9033 18.7649L24.1837 19.5018C24.1585 19.5279 24.1472 19.5644 24.1531 19.6002L24.3219 20.6349C24.329 20.6782 24.3107 20.7216 24.2748 20.7469C24.239 20.7721 24.1919 20.7746 24.1535 20.7534L23.2844 20.2726C23.2499 20.2538 23.2082 20.2538 23.1737 20.2726L22.3046 20.7534C22.2662 20.7746 22.2191 20.7721 22.1833 20.7469C22.1474 20.7216 22.1292 20.6782 22.1362 20.6349L22.305 19.6002C22.3109 19.5643 22.2994 19.5278 22.2739 19.5018L21.5543 18.764C21.5249 18.7332 21.5149 18.6887 21.5284 18.6484C21.542 18.608 21.5768 18.5785 21.6189 18.5718L22.6028 18.4218C22.6405 18.4158 22.6728 18.3917 22.6892 18.3573L23.1252 17.4282C23.144 17.3879 23.1844 17.3622 23.2288 17.3622C23.2732 17.3622 23.3136 17.388 23.3324 17.4283Z" fill="#BBC3CF"></path><path d="M1.81024 11.9308L2.2462 12.8599C2.26273 12.8942 2.29501 12.9183 2.33263 12.9244L3.31658 13.0744C3.35897 13.0809 3.39421 13.1105 3.40784 13.1512C3.42141 13.1919 3.4111 13.2367 3.3811 13.2674L2.662 14.0043C2.63692 14.0305 2.62541 14.0668 2.63091 14.1027L2.79968 15.1374C2.80663 15.1805 2.78839 15.2239 2.75273 15.2491C2.71708 15.2742 2.67013 15.2769 2.63184 15.2559L1.76226 14.7751C1.72774 14.7563 1.68608 14.7563 1.65157 14.7751L0.782454 15.2559C0.744159 15.2769 0.697211 15.2742 0.661559 15.2491C0.625855 15.2239 0.607667 15.1805 0.614611 15.1374L0.782972 14.1027C0.788465 14.0668 0.776961 14.0305 0.75188 14.0043L0.032626 13.2656C0.00262252 13.2349 -0.00768956 13.1901 0.00588714 13.1494C0.0194638 13.1087 0.0547011 13.079 0.0971413 13.0726L1.08109 12.9226C1.11871 12.9165 1.15099 12.8924 1.16752 12.858L1.60348 11.929C1.62245 11.8889 1.66307 11.8634 1.70743 11.8638C1.75184 11.8642 1.79195 11.8903 1.81024 11.9308Z" fill="#BBC3CF"></path><path d="M24.6822 11.9308L25.1182 12.8599C25.1347 12.8943 25.167 12.9183 25.2046 12.9244L26.1886 13.0744C26.231 13.0809 26.2662 13.1106 26.2798 13.1512C26.2934 13.1919 26.2831 13.2368 26.2531 13.2675L25.534 14.0044C25.5089 14.0306 25.4974 14.0669 25.5029 14.1028L25.6717 15.1375C25.6786 15.1806 25.6604 15.2239 25.6247 15.2491C25.5891 15.2743 25.5421 15.2769 25.5038 15.2559L24.6347 14.7752C24.6002 14.7564 24.5585 14.7564 24.524 14.7752L23.6549 15.2559C23.6166 15.2769 23.5697 15.2743 23.534 15.2491C23.4983 15.2239 23.4801 15.1806 23.4871 15.1375L23.6558 14.1028C23.6613 14.0669 23.6498 14.0306 23.6248 14.0044L22.9047 13.2656C22.8747 13.2349 22.8644 13.1901 22.878 13.1494C22.8916 13.1087 22.9268 13.079 22.9692 13.0726L23.9532 12.9226C23.9908 12.9165 24.0231 12.8924 24.0396 12.858L24.4756 11.929C24.4945 11.8889 24.5352 11.8634 24.5795 11.8638C24.6238 11.8643 24.6639 11.8904 24.6822 11.9308Z" fill="#BBC3CF"></path><path d="M3.72595 17.3337L4.16191 18.2627C4.17834 18.2972 4.21067 18.3213 4.24835 18.3273L5.23229 18.4773C5.27468 18.4838 5.30992 18.5134 5.32355 18.5541C5.33713 18.5948 5.32681 18.6396 5.29681 18.6703L4.57771 19.4077C4.55216 19.4334 4.54061 19.4698 4.54662 19.5056L4.7154 20.5403C4.72249 20.5836 4.7042 20.6271 4.66834 20.6523C4.63248 20.6775 4.58538 20.68 4.54703 20.6588L3.67792 20.1785C3.64351 20.1592 3.60159 20.1592 3.56723 20.1785L2.69812 20.6588C2.65956 20.68 2.61225 20.6773 2.57644 20.6517C2.54064 20.6262 2.52265 20.5823 2.53022 20.5389L2.69858 19.5042C2.70454 19.4685 2.69314 19.4322 2.66796 19.4063L1.94834 18.6703C1.91834 18.6396 1.90802 18.5948 1.9216 18.5541C1.93518 18.5134 1.97041 18.4837 2.01285 18.4773L2.9968 18.3273C3.03437 18.3214 3.0666 18.2972 3.08282 18.2627L3.51878 17.3337C3.53785 17.2938 3.57816 17.2683 3.62237 17.2683C3.66657 17.2683 3.70688 17.2937 3.72595 17.3337Z" fill="#BBC3CF"></path><path d="M23.5336 5.89758L23.9696 6.82665C23.9861 6.861 24.0184 6.88505 24.056 6.89116L25.0399 7.04118C25.0823 7.04766 25.1176 7.0773 25.1312 7.11798C25.1448 7.15866 25.1345 7.20353 25.1045 7.23421L24.3854 7.9716C24.3602 7.99756 24.3487 8.03378 24.3543 8.06949L24.523 9.10422C24.53 9.14733 24.5118 9.19065 24.4761 9.21584C24.4404 9.24102 24.3935 9.24366 24.3552 9.22268L23.4861 8.74236C23.4517 8.72314 23.4098 8.72314 23.3754 8.74236L22.5063 9.22268C22.4677 9.24449 22.42 9.24201 22.3838 9.21636C22.3477 9.1907 22.3296 9.14645 22.3375 9.10282L22.5063 8.06809C22.512 8.03238 22.5005 7.99606 22.4752 7.9702L21.7561 7.23281C21.7261 7.20213 21.7158 7.15726 21.7294 7.11658C21.7429 7.0759 21.7782 7.04621 21.8206 7.03978L22.8046 6.88976C22.8422 6.88381 22.8746 6.85971 22.891 6.82525L23.327 5.89618C23.3461 5.85633 23.3865 5.83109 23.4307 5.8314C23.4749 5.83171 23.515 5.85747 23.5336 5.89758Z" fill="#BBC3CF"></path><path d="M7.47426 21.2836L7.91021 22.2127C7.92664 22.2471 7.95897 22.2712 7.99665 22.2772L8.9806 22.4272C9.02298 22.4337 9.05822 22.4633 9.07185 22.504C9.08548 22.5447 9.07511 22.5895 9.04511 22.6202L8.32601 23.3571C8.30093 23.3833 8.28943 23.4196 8.29492 23.4555L8.4637 24.4902C8.47064 24.5333 8.4524 24.5767 8.41675 24.6018C8.38104 24.627 8.33415 24.6297 8.29585 24.6087L7.42674 24.1279C7.39223 24.1091 7.35056 24.1091 7.31605 24.1279L6.446 24.61C6.40771 24.631 6.36076 24.6284 6.32511 24.6032C6.2894 24.578 6.27121 24.5347 6.27816 24.4916L6.44693 23.4568C6.45243 23.421 6.44092 23.3847 6.41584 23.3585L5.69674 22.6202C5.66674 22.5895 5.65643 22.5446 5.67 22.5039C5.68358 22.4633 5.71882 22.4336 5.76126 22.4271L6.74521 22.2771C6.78283 22.2711 6.81511 22.247 6.83164 22.2126L7.2676 21.2835C7.28651 21.2436 7.32678 21.2181 7.37098 21.2181C7.41508 21.2181 7.45534 21.2436 7.47426 21.2836Z" fill="#BBC3CF"></path><path d="M18.9104 1.47603L19.3463 2.4051C19.3627 2.43956 19.3951 2.46366 19.4327 2.46962L20.4167 2.61964C20.4591 2.62611 20.4943 2.65576 20.5079 2.69643C20.5215 2.73711 20.5112 2.78199 20.4812 2.81266L19.7621 3.54959C19.737 3.57576 19.7255 3.61208 19.731 3.64794L19.8998 4.68267C19.9067 4.72579 19.8885 4.76911 19.8528 4.79429C19.8171 4.81948 19.7702 4.82212 19.732 4.80113L18.861 4.32035C18.8265 4.30154 18.7848 4.30154 18.7503 4.32035L17.882 4.80295C17.8438 4.82393 17.7968 4.82129 17.7612 4.79611C17.7255 4.77092 17.7073 4.7276 17.7142 4.68449L17.883 3.64976C17.8885 3.6139 17.877 3.57757 17.8519 3.5514L17.1328 2.81261C17.1028 2.78194 17.0925 2.73706 17.1061 2.69638C17.1196 2.6557 17.1549 2.62601 17.1973 2.61959L18.1813 2.46998C18.2189 2.46392 18.2512 2.43982 18.2677 2.40547L18.7036 1.4764C18.7222 1.43608 18.7625 1.41017 18.8069 1.41007C18.8512 1.41007 18.8916 1.43577 18.9104 1.47603Z" fill="#BBC3CF"></path><path d="M16.2363 12.1395H15.9342V10.9247C15.9342 9.58479 14.8504 8.49512 13.5176 8.49512C12.1848 8.49512 11.1009 9.58479 11.1009 10.9247V12.1395H10.7988C10.2994 12.1395 9.89258 12.5481 9.89258 13.0506V17.3024C9.89258 17.8049 10.2994 18.2135 10.7988 18.2135H16.2363C16.7358 18.2135 17.1426 17.8049 17.1426 17.3024V13.0506C17.1426 12.5481 16.7358 12.1395 16.2363 12.1395ZM11.9065 10.9247C11.9065 10.0314 12.6291 9.30498 13.5176 9.30498C14.4061 9.30498 15.1287 10.0314 15.1287 10.9247V12.1395H11.9065V10.9247Z" fill="#BBC3CF"></path></g><defs><clipPath id="clip0_2549_57"><rect width="75" height="27" fill="white"></rect></clipPath></defs></svg>