<svg class="w-[70px]" width="80" height="22" viewBox="0 0 80 22" fill="none" xmlns="http://www.w3.org/2000/svg"><g clip-path="url(#clip0_2549_51)"><path d="M11.84 7.6486H11.2762V5.38129C11.2762 2.88045 9.25327 0.84668 6.76574 0.84668C4.2782 0.84668 2.25525 2.88045 2.25525 5.38129V7.6486H1.69143C0.759266 7.6486 0 8.41117 0 9.34908V17.2846C0 18.2226 0.759266 18.9851 1.69143 18.9851H11.84C12.7722 18.9851 13.5315 18.2226 13.5315 17.2846V9.34908C13.5315 8.41117 12.7722 7.6486 11.84 7.6486ZM3.75874 5.38129C3.75874 3.71407 5.10738 2.35822 6.76574 2.35822C8.42409 2.35822 9.77273 3.71407 9.77273 5.38129V7.6486H3.75874V5.38129Z" fill="#BBC3CF"></path><path d="M26.5381 11.1886C23.9337 11.1886 22.287 10.0352 22.1709 8.03292L22.1636 7.90234H24.6374L24.6519 7.98214C24.7825 8.65681 25.566 9.09933 26.5889 9.09933C27.648 9.09933 28.3009 8.64955 28.3009 7.99665V7.9894C28.3009 7.39453 27.8366 7.11886 26.6106 6.87946L25.537 6.67634C23.4622 6.29185 22.3668 5.26897 22.3668 3.66574V3.65848C22.3668 1.64174 24.1151 0.343193 26.5163 0.343193C29.1424 0.343193 30.6296 1.57645 30.7239 3.47712L30.7312 3.62946H28.2574L28.2501 3.54967C28.1703 2.86049 27.4957 2.43248 26.5381 2.43248C25.5587 2.43248 25.0074 2.875 25.0074 3.47712V3.48438C25.0074 4.05022 25.5007 4.34766 26.6251 4.55804L27.6988 4.76116C29.9187 5.18917 30.9488 6.08873 30.9488 7.76451V7.77176C30.9488 9.86105 29.3093 11.1886 26.5381 11.1886ZM32.0929 11V0.531809H39.2676V2.67188H34.7553V4.7394H38.9992V6.74163H34.7553V8.85993H39.2676V11H32.0929ZM45.4826 11.1886C42.3414 11.1886 40.3899 9.17913 40.3899 5.76228V5.75502C40.3899 2.33817 42.3559 0.343193 45.4826 0.343193C48.2175 0.343193 50.1109 2.09877 50.2052 4.44196V4.51451H47.6444L47.6299 4.40569C47.463 3.31752 46.7013 2.54855 45.4826 2.54855C44.0244 2.54855 43.1031 3.74554 43.1031 5.74777V5.75502C43.1031 7.77902 44.0317 8.98326 45.4898 8.98326C46.6433 8.98326 47.463 8.26507 47.6444 7.0971L47.6589 7.0173H50.2197L50.2125 7.0971C50.1182 9.44029 48.203 11.1886 45.4826 11.1886ZM55.8906 11.1886C53.163 11.1886 51.3856 9.64342 51.3856 7.28571V0.531809H54.048V7.03181C54.048 8.25056 54.7009 8.98326 55.8979 8.98326C57.0876 8.98326 57.7405 8.25056 57.7405 7.03181V0.531809H60.4029V7.28571C60.4029 9.63616 58.6401 11.1886 55.8906 11.1886ZM61.9025 11V0.531809H66.4365C68.9683 0.531809 70.3975 1.78683 70.3975 4.0067V4.02121C70.3975 5.36328 69.701 6.524 68.6129 6.99554L70.7094 11H67.7206L65.9215 7.39453H64.5649V11H61.9025ZM64.5649 5.46484H66.1391C67.0822 5.46484 67.6843 4.899 67.6843 4.01395V3.99944C67.6843 3.12165 67.0604 2.5413 66.1246 2.5413H64.5649V5.46484ZM71.6504 11V0.531809H78.8251V2.67188H74.3128V4.7394H78.5567V6.74163H74.3128V8.85993H78.8251V11H71.6504Z" fill="#5F6979"></path><path d="M23.9524 21.8004C22.7657 21.8004 22.001 21.2572 21.9422 20.3369L21.9388 20.2815H22.9248L22.9317 20.3196C22.9975 20.7071 23.4092 20.9492 23.9801 20.9492C24.5578 20.9492 24.9211 20.6967 24.9211 20.3161V20.3126C24.9211 19.9736 24.6755 19.804 24.0562 19.676L23.5303 19.5722C22.5442 19.375 22.046 18.9045 22.046 18.1537V18.1503C22.046 17.2369 22.8418 16.6348 23.9489 16.6348C25.1045 16.6348 25.8138 17.2126 25.8622 18.088L25.8657 18.1537H24.8796L24.8761 18.1122C24.8242 17.7212 24.4644 17.4825 23.9489 17.4825C23.4126 17.486 23.0909 17.7316 23.0909 18.088V18.0914C23.0909 18.4063 23.3469 18.5896 23.9212 18.7038L24.4506 18.8111C25.4955 19.0187 25.966 19.4442 25.966 20.2296V20.2331C25.966 21.1914 25.2117 21.8004 23.9524 21.8004ZM28.3869 21.8004C27.2001 21.8004 26.4355 21.2572 26.3767 20.3369L26.3733 20.2815H27.3593L27.3662 20.3196C27.432 20.7071 27.8437 20.9492 28.4145 20.9492C28.9923 20.9492 29.3556 20.6967 29.3556 20.3161V20.3126C29.3556 19.9736 29.11 19.804 28.4907 19.676L27.9648 19.5722C26.9787 19.375 26.4805 18.9045 26.4805 18.1537V18.1503C26.4805 17.2369 27.2763 16.6348 28.3834 16.6348C29.539 16.6348 30.2482 17.2126 30.2967 18.088L30.3001 18.1537H29.3141L29.3106 18.1122C29.2587 17.7212 28.8989 17.4825 28.3834 17.4825C27.8471 17.486 27.5254 17.7316 27.5254 18.088V18.0914C27.5254 18.4063 27.7814 18.5896 28.3557 18.7038L28.8851 18.8111C29.9299 19.0187 30.4005 19.4442 30.4005 20.2296V20.2331C30.4005 21.1914 29.6462 21.8004 28.3869 21.8004ZM30.998 21.7139V16.7213H32.0429V20.8524H34.226V21.7139H30.998ZM36.165 21.7139V16.7213H39.4726V17.5828H37.2099V18.7799H39.3446V19.5965H37.2099V20.8524H39.4726V21.7139H36.165ZM40.1843 21.7139V16.7213H41.0977L43.3535 19.9667H43.3743V16.7213H44.4157V21.7139H43.5092L41.2465 18.4443H41.2257V21.7139H40.1843ZM47.4282 21.8004C45.9682 21.8004 45.0513 20.8247 45.0513 19.2159V19.2124C45.0513 17.6036 45.9716 16.6348 47.4282 16.6348C48.6391 16.6348 49.5076 17.3995 49.6044 18.4582L49.6079 18.4893H48.5907L48.5769 18.4305C48.4592 17.8804 48.051 17.5206 47.4282 17.5206C46.629 17.5206 46.1169 18.1641 46.1169 19.209V19.2124C46.1169 20.2642 46.629 20.9146 47.4282 20.9146C48.0302 20.9146 48.4523 20.5687 48.5872 19.977L48.5942 19.9424H49.6113L49.6079 19.9805C49.511 21.0427 48.6357 21.8004 47.4282 21.8004ZM50.2158 21.7139V16.7213H52.2779C53.3989 16.7213 54.0631 17.3164 54.0631 18.3198V18.3267C54.0631 18.9841 53.7137 19.5307 53.1601 19.7487L54.2119 21.7139H53.0287L52.098 19.9044H51.2607V21.7139H50.2158ZM51.2607 19.1121H52.1637C52.6827 19.1121 52.9941 18.818 52.9941 18.3267V18.3198C52.9941 17.8423 52.6654 17.5379 52.1499 17.5379H51.2607V19.1121ZM55.8682 21.7139V19.849L54.1313 16.7213H55.2592L56.3802 18.8526H56.4044L57.522 16.7213H58.6533L56.913 19.849V21.7139H55.8682ZM59.1194 21.7139V16.7213H61.1261C62.1779 16.7213 62.8802 17.3995 62.8802 18.427V18.434C62.8802 19.4615 62.1779 20.1396 61.1261 20.1396H60.1643V21.7139H59.1194ZM60.8701 17.5482H60.1643V19.3231H60.8701C61.4686 19.3231 61.8215 19.0048 61.8215 18.4374V18.4305C61.8215 17.8631 61.4686 17.5482 60.8701 17.5482ZM64.6507 21.7139V17.5828H63.2079V16.7213H67.1417V17.5828H65.6955V21.7139H64.6507ZM67.677 21.7139V16.7213H68.7219V21.7139H67.677ZM71.7621 21.8004C70.2778 21.8004 69.354 20.8074 69.354 19.2193V19.2124C69.354 17.6244 70.2847 16.6348 71.7621 16.6348C73.2429 16.6348 74.1701 17.6278 74.1701 19.2124V19.2193C74.1701 20.8074 73.2463 21.8004 71.7621 21.8004ZM71.7621 20.9146C72.5924 20.9146 73.1045 20.2538 73.1045 19.2193V19.2124C73.1045 18.171 72.582 17.5206 71.7621 17.5206C70.9455 17.5206 70.4197 18.1676 70.4197 19.2124V19.2193C70.4197 20.2642 70.9421 20.9146 71.7621 20.9146ZM74.8023 21.7139V16.7213H75.7156L77.9714 19.9667H77.9922V16.7213H79.0336V21.7139H78.1271L75.8644 18.4443H75.8437V21.7139H74.8023Z" fill="#BBC3CF"></path></g><defs><clipPath id="clip0_2549_51"><rect width="80" height="22" fill="white"></rect></clipPath></defs></svg>