<svg width="151" height="53" viewBox="0 0 151 53" fill="none" xmlns="http://www.w3.org/2000/svg"><path d="M8.6957 10.3334C8.2136 8.31103 9.19849 6.42498 10.2244 4.89638C11.3536 3.21352 13.2378 1.72189 15.3421 1.18555C14.9598 3.0935 13.8456 4.73926 12.7732 6.28654C11.7079 7.82374 10.3644 9.3806 8.6957 10.3334Z" fill="#BBC3CF"></path><path d="M7.22791 14.2123C7.60425 12.6108 7.5959 10.8574 7.23763 9.35522C6.92258 8.03503 6.46414 6.16878 4.95529 5.53906C3.85853 7.29724 3.41766 9.6915 4.05686 11.4855C4.51903 12.7832 5.35019 14.4989 7.07393 14.7645C8.65566 15.1289 10.2551 14.2857 11.5183 13.5895C12.9229 12.8154 14.2987 11.584 15.1346 10.12C13.6012 9.34651 11.8549 9.97423 10.5411 10.5758C9.12494 11.2243 7.824 12.6157 7.22791 14.2123Z" fill="#BBC3CF"></path><path d="M2.35748 18.5345C3.13532 19.7205 4.33897 21.206 6.09398 21.1637C7.68991 21.2434 9.0687 20.1549 10.1545 19.2464C11.3239 18.268 12.3794 16.8371 12.825 15.2902C11.1927 14.8156 9.62991 15.6948 8.46451 16.5241C7.24754 17.3903 6.31161 18.9754 6.11054 20.603C6.09547 18.9724 5.65385 17.2883 4.94191 15.9316C4.291 14.6913 3.38398 13.0148 1.76575 12.6797C1.12817 14.6096 1.3316 16.9708 2.35748 18.5345Z" fill="#BBC3CF"></path><path d="M6.6127 27.5508C4.98388 27.8235 3.39506 26.8262 2.3632 25.653C1.03473 24.1426 0.244304 22.1164 0.405504 20.0879C2.07879 20.1303 3.34609 21.5759 4.28277 22.669C5.29158 23.8463 6.11814 25.3952 6.51466 26.993C6.34025 25.4007 6.87518 23.6812 7.86817 22.6187C8.82665 21.5931 10.1693 20.4753 11.8399 20.6547C11.8039 22.2694 10.994 23.8077 10.1587 24.9598C9.38013 26.0335 8.18072 27.3615 6.6127 27.5508Z" fill="#BBC3CF"></path><path d="M3.60408 32.9167C5.10421 33.8928 6.92363 34.8589 8.83573 34.1277C10.4044 33.573 11.4017 31.995 12.0151 30.5466C12.6649 29.0119 13.0989 27.2422 12.7985 25.5625C11.0747 25.7154 9.64534 26.9479 8.88618 28.4525C8.09251 30.0254 7.94028 31.8977 8.54995 33.5468C7.64915 31.8502 6.33177 30.4775 4.93628 29.2091C3.66774 28.0561 1.84047 26.8415 0 27.0699C0.35018 29.3439 1.73869 31.7031 3.60408 32.9167Z" fill="#BBC3CF"></path><path d="M12.6996 40.2742C14.1758 39.3922 14.7699 37.5365 15.0127 35.9462C15.2744 34.2312 15.2632 32.3398 14.5505 30.7129C12.8378 31.191 11.6622 32.7315 11.2741 34.4189C10.864 36.2016 11.21 38.1016 12.2076 39.6195C10.8815 38.0989 9.11816 36.8435 7.4283 35.9632C5.796 35.1128 3.79345 34.0872 1.83314 34.7066C2.77842 37.0122 4.80052 39.1588 7.04162 40.0467C8.7772 40.7342 10.8886 41.4141 12.6996 40.2742Z" fill="#BBC3CF"></path><path d="M19.6979 40.8718C19.9146 42.5272 19.9085 44.6267 18.6225 45.9009C17.0155 47.5447 14.5285 47.2275 12.6103 46.8658C10.035 46.3799 7.13618 44.6246 5.58248 42.2874C7.48001 41.2432 9.80071 41.9111 11.6793 42.4518L11.7866 42.4826C13.8835 43.0855 16.1182 44.0566 17.987 45.3836C16.4956 44.0367 15.4089 42.0599 15.3558 40.0674C15.3079 38.2853 16.0819 36.3788 17.7475 35.5293C18.9103 37.0545 19.4548 39.0128 19.6979 40.8718Z" fill="#BBC3CF"></path><path d="M27.1626 50.5891C28.1096 48.7875 27.1713 46.673 26.4236 45.1102C25.5397 43.2626 24.3319 41.3797 22.6034 40.0273C20.9437 41.4568 21.1015 43.5022 21.595 45.2799C22.1817 47.3935 24.2159 49.1952 26.3224 50.222C23.8828 49.3128 21.2185 48.7671 18.6837 48.606L18.4269 48.5894C16.3905 48.4568 13.7394 48.2843 12.1167 49.7737C14.5702 51.8582 18.0552 53.0608 21.1267 52.9983C23.1851 52.9565 26.0092 52.7131 27.1626 50.5891Z" fill="#BBC3CF"></path><path d="M59.0515 16L59.753 12.7266H57.5317L56.8136 16H55.227L55.9451 12.7266H53.9243V11.2068H56.2792L56.7301 9.10244H54.6424V7.58264H57.0641L57.7823 4.30922H59.3689L58.6507 7.58264H60.872L61.5734 4.30922H63.16L62.4586 7.58264H64.4794V9.10244H62.1245L61.6736 11.2068H63.778V12.7266H61.3396L60.6381 16H59.0515ZM57.8658 11.2068H60.087L60.5379 9.10244H58.3167L57.8658 11.2068ZM69.9229 4.30922V16H67.7184V7.39892C67.518 7.69954 66.8332 7.84985 66.3322 7.84985H65.4303V5.94593H66.2487C67.1672 5.94593 67.685 5.5785 67.8353 4.30922H69.9229ZM80.4964 16.1336C77.7574 16.1336 75.9036 14.6138 75.9036 11.7746V4.30922H77.9746V11.7913C77.9746 13.3946 79.01 14.1963 80.4964 14.1963C81.9828 14.1963 83.0183 13.3946 83.0183 11.7913V4.30922H85.0725V11.7746C85.0725 14.6138 83.2187 16.1336 80.4964 16.1336ZM89.5921 16H87.4043V4.30922H89.5921V9.46986L94.3186 4.30922H97.0575L92.7487 8.95213L97.5085 16H94.7528L91.2456 10.5721L89.5921 12.3592V16ZM50.047 35V23.3092H52.2515V33.0794H57.7128V35H50.047ZM62.396 35.1336C59.6403 35.1336 58.1205 32.9625 58.1205 30.7579C58.1205 28.5367 59.49 26.449 62.2457 26.449C65.0515 26.449 66.3208 28.5033 66.3208 30.5074C66.3208 30.7913 66.3041 31.0585 66.2874 31.2255H60.108C60.275 32.5616 61.11 33.4301 62.396 33.4301C63.4482 33.4301 64.1496 32.9959 64.35 32.1942H66.3542C66.0536 33.9812 64.4836 35.1336 62.396 35.1336ZM60.1581 29.8227H64.2832C64.1997 28.7538 63.4649 28.0022 62.2457 28.0022C61.11 28.0022 60.3919 28.6369 60.1581 29.8227ZM70.4058 35.1336C68.7356 35.1336 67.6 34.0647 67.6 32.595C67.6 30.975 68.8526 29.9229 70.8233 29.9229H72.2429C72.7105 29.9229 72.9109 29.7558 72.9109 29.3884C72.9109 28.5701 72.293 28.0022 71.2074 28.0022C70.1218 28.0022 69.4705 28.6703 69.4371 29.4218H67.6C67.7002 27.7517 69.1198 26.449 71.3076 26.449C73.4454 26.449 74.9485 27.7016 74.9485 29.5721V35H72.9109V33.7474C72.5769 34.5825 71.5915 35.1336 70.4058 35.1336ZM70.8901 33.6138C72.1594 33.6138 72.9109 32.7119 72.9109 31.4594V31.3258H71.0905C70.1719 31.3258 69.5874 31.7767 69.5874 32.5115C69.5874 33.1796 70.1051 33.6138 70.8901 33.6138ZM80.328 35.1336C77.9231 35.1336 76.4534 33.3466 76.4534 30.7913C76.4534 28.236 77.9231 26.449 80.3615 26.449C81.4136 26.449 82.3656 26.9 82.9 27.6014V22.9752H84.9376V35H82.9V33.9478C82.399 34.666 81.4136 35.1336 80.328 35.1336ZM80.7456 33.3633C82.1151 33.3633 83.0169 32.3445 83.0169 30.7913C83.0169 29.2381 82.1151 28.2193 80.7456 28.2193C79.3928 28.2193 78.4909 29.2381 78.4909 30.7913C78.4909 32.3445 79.3928 33.3633 80.7456 33.3633ZM90.7749 35.1336C88.0192 35.1336 86.4994 32.9625 86.4994 30.7579C86.4994 28.5367 87.8689 26.449 90.6245 26.449C93.4303 26.449 94.6996 28.5033 94.6996 30.5074C94.6996 30.7913 94.6829 31.0585 94.6662 31.2255H88.4868C88.6538 32.5616 89.4889 33.4301 90.7749 33.4301C91.827 33.4301 92.5285 32.9959 92.7289 32.1942H94.733C94.4324 33.9812 92.8625 35.1336 90.7749 35.1336ZM88.5369 29.8227H92.6621C92.5786 28.7538 91.8437 28.0022 90.6245 28.0022C89.4889 28.0022 88.7707 28.6369 88.5369 29.8227ZM96.3295 35V26.5826H98.3838V28.069C98.8013 27.0002 99.4527 26.5826 100.538 26.5826H101.524V28.3029H100.204C98.8848 28.3029 98.3838 29.4218 98.3838 31.0251V35H96.3295Z" fill="#5F6979"></path><path d="M140.692 4.90053C141.716 6.43013 142.699 8.31706 142.215 10.3392C140.547 9.38498 139.205 7.827 138.141 6.28893C137.07 4.74054 135.957 3.09403 135.576 1.18555C137.68 1.72343 139.564 3.21654 140.692 4.90053Z" fill="#BBC3CF"></path><path d="M143.68 14.2211C143.086 12.6232 141.785 11.23 140.37 10.5802C139.056 9.97754 137.31 9.34864 135.777 10.1208C136.611 11.5856 137.985 12.8181 139.39 13.5933C140.652 14.2903 142.25 15.1347 143.832 14.7718C145.556 14.5078 146.39 12.7923 146.853 11.4946C147.495 9.70125 147.056 7.30632 145.961 5.54688C144.451 6.17577 143.99 8.04167 143.675 9.36184C143.315 10.8645 143.305 12.6186 143.68 14.2211Z" fill="#BBC3CF"></path><path d="M142.441 16.5277C143.657 17.3943 144.59 18.9787 144.791 20.6053C144.808 18.9755 145.252 17.2928 145.964 15.9374C146.616 14.6975 147.525 13.0216 149.144 12.6875C149.779 14.6181 149.573 16.9795 148.546 18.5424C147.768 19.7264 146.565 21.2089 144.813 21.1692C143.215 21.2507 141.834 20.1596 140.748 19.2491C139.579 18.2696 138.525 16.8379 138.082 15.2906C139.714 14.817 141.276 15.6975 142.441 16.5277Z" fill="#BBC3CF"></path><path d="M144.378 27.0066C144.556 25.4128 144.023 23.6896 143.029 22.6249C142.072 21.5984 140.73 20.4796 139.06 20.6578C139.093 22.2725 139.902 23.8117 140.737 24.9646C141.514 26.0385 142.711 27.3666 144.279 27.558C145.908 27.8338 147.499 26.8368 148.533 25.6637C149.863 24.1543 150.655 22.1285 150.497 20.0996C148.822 20.1409 147.554 21.5855 146.616 22.6779C145.604 23.8561 144.776 25.4068 144.378 27.0066Z" fill="#BBC3CF"></path><path d="M142.007 28.4577C142.799 30.0316 142.95 31.9043 142.338 33.5531C143.24 31.8567 144.559 30.4847 145.956 29.2171C147.226 28.0649 149.054 26.8518 150.895 27.0815C150.543 29.3555 149.152 31.7138 147.285 32.9261C145.785 33.8997 143.968 34.8639 142.058 34.1357C140.487 33.582 139.489 32.0006 138.876 30.5496C138.227 29.0142 137.794 27.2442 138.097 25.5645C139.82 25.7187 141.249 26.9525 142.007 28.4577Z" fill="#BBC3CF"></path><path d="M138.677 39.6223C139.673 38.1058 140.021 36.2075 139.614 34.4256C139.227 32.7377 138.052 31.1962 136.339 30.7168C135.626 32.3431 135.613 34.2346 135.872 35.95C136.114 37.5373 136.704 39.3895 138.172 40.2748C139.985 41.4237 142.101 40.7442 143.839 40.0569C146.082 39.1705 148.106 37.0252 149.053 34.7199C147.094 34.0992 145.09 35.1234 143.457 35.9726C141.768 36.8512 140.003 38.1042 138.677 39.6223Z" fill="#BBC3CF"></path><path d="M131.181 40.871C130.963 42.5261 130.967 44.6257 132.253 45.901C133.857 47.5463 136.345 47.2308 138.264 46.8704C140.84 46.3864 143.741 44.6328 145.297 42.2968C143.401 41.2512 141.078 41.9172 139.2 42.4565L139.091 42.4874C136.995 43.0885 134.759 44.0577 132.889 45.3827C134.382 44.0369 135.47 42.0616 135.524 40.0697C135.574 38.2876 134.802 36.3802 133.137 35.5293C131.973 37.0538 131.427 39.0119 131.181 40.871Z" fill="#BBC3CF"></path><path d="M129.743 52.9963C127.685 52.9529 124.861 52.7074 123.709 50.5823L123.693 50.5532C122.774 48.7569 123.708 46.6574 124.453 45.1037C125.339 43.2566 126.549 41.3744 128.278 40.0234C129.937 41.4542 129.777 43.4996 129.282 45.2769C128.693 47.3903 126.657 49.1909 124.549 50.216C126.99 49.3086 129.655 48.7649 132.19 48.6055L132.448 48.5891C134.485 48.4581 137.136 48.2877 138.757 49.7781C136.301 51.8607 132.815 53.0611 129.743 52.9963Z" fill="#BBC3CF"></path><path d="M52.2935 47.4955L50.4857 49.2566L50.9126 51.7441C50.9312 51.8528 50.8865 51.9628 50.7971 52.0277C50.7466 52.0646 50.6865 52.0831 50.6264 52.0831C50.5803 52.0831 50.5338 52.0721 50.4915 52.0498L48.2562 50.8754L46.0212 52.0495C45.9236 52.1011 45.8049 52.0927 45.7156 52.0275C45.6262 51.9625 45.5815 51.8526 45.6 51.7438L46.027 49.2563L44.2189 47.4955C44.1399 47.4183 44.1112 47.3029 44.1454 47.1982C44.1797 47.0935 44.2705 47.0166 44.3799 47.0006L46.8785 46.6381L47.9958 44.3751C48.0936 44.177 48.4187 44.177 48.5165 44.3751L49.6339 46.6381L52.1324 47.0006C52.2418 47.0166 52.3326 47.0932 52.3669 47.1982C52.4011 47.3032 52.3724 47.418 52.2935 47.4955Z" fill="#2660F5"></path><path d="M65.5378 47.4955L63.73 49.2566L64.1569 51.7441C64.1755 51.8528 64.1308 51.9628 64.0414 52.0277C63.9909 52.0646 63.9308 52.0831 63.8708 52.0831C63.8246 52.0831 63.7782 52.0721 63.7358 52.0498L61.5005 50.8754L59.2655 52.0495C59.168 52.1011 59.0493 52.0927 58.9599 52.0275C58.8705 51.9625 58.8258 51.8526 58.8444 51.7438L59.2713 49.2563L57.4632 47.4955C57.3843 47.4183 57.3555 47.3029 57.3898 47.1982C57.424 47.0935 57.5149 47.0166 57.6243 47.0006L60.1228 46.6381L61.2402 44.3751C61.338 44.177 61.663 44.177 61.7608 44.3751L62.8782 46.6381L65.3767 47.0006C65.4861 47.0166 65.577 47.0932 65.6112 47.1982C65.6455 47.3032 65.6167 47.418 65.5378 47.4955Z" fill="#2660F5"></path><path d="M78.7841 47.4955L76.9763 49.2566L77.4032 51.7441C77.4218 51.8528 77.3771 51.9628 77.2877 52.0277C77.2372 52.0646 77.1771 52.0831 77.1171 52.0831C77.0709 52.0831 77.0245 52.0721 76.9821 52.0498L74.7468 50.8754L72.5118 52.0495C72.4143 52.1011 72.2956 52.0927 72.2062 52.0275C72.1168 51.9625 72.0721 51.8526 72.0907 51.7438L72.5176 49.2563L70.7095 47.4955C70.6306 47.4183 70.6019 47.3029 70.6361 47.1982C70.6703 47.0935 70.7612 47.0166 70.8706 47.0006L73.3691 46.6381L74.4865 44.3751C74.5843 44.177 74.9093 44.177 75.0071 44.3751L76.1245 46.6381L78.623 47.0006C78.7324 47.0166 78.8233 47.0932 78.8575 47.1982C78.8918 47.3032 78.863 47.418 78.7841 47.4955Z" fill="#2660F5"></path><path d="M92.0285 47.4955L90.2207 49.2566L90.6476 51.7441C90.6661 51.8528 90.6215 51.9628 90.5321 52.0277C90.4816 52.0646 90.4215 52.0831 90.3614 52.0831C90.3153 52.0831 90.2688 52.0721 90.2265 52.0498L87.9912 50.8754L85.7562 52.0495C85.6586 52.1011 85.5399 52.0927 85.4506 52.0275C85.3612 51.9625 85.3165 51.8526 85.335 51.7438L85.762 49.2563L83.9539 47.4955C83.8749 47.4183 83.8462 47.3029 83.8804 47.1982C83.9147 47.0935 84.0055 47.0166 84.1149 47.0006L86.6135 46.6381L87.7308 44.3751C87.8286 44.177 88.1537 44.177 88.2515 44.3751L89.3689 46.6381L91.8674 47.0006C91.9768 47.0166 92.0676 47.0932 92.1019 47.1982C92.1361 47.3032 92.1074 47.418 92.0285 47.4955Z" fill="#2660F5"></path><path d="M105.273 47.4955L103.465 49.2566L103.892 51.7441C103.91 51.8528 103.866 51.9628 103.776 52.0277C103.726 52.0646 103.666 52.0831 103.606 52.0831C103.56 52.0831 103.513 52.0721 103.471 52.0498L101.236 50.8754L99.0005 52.0495C98.903 52.1011 98.7843 52.0927 98.6949 52.0275C98.6055 51.9625 98.5608 51.8526 98.5794 51.7438L99.0063 49.2563L97.1982 47.4955C97.1193 47.4183 97.0905 47.3029 97.1248 47.1982C97.159 47.0935 97.2499 47.0166 97.3593 47.0006L99.8578 46.6381L100.975 44.3751C101.073 44.177 101.398 44.177 101.496 44.3751L102.613 46.6381L105.112 47.0006C105.221 47.0166 105.312 47.0932 105.346 47.1982C105.38 47.3032 105.352 47.418 105.273 47.4955Z" fill="#2660F5"></path></svg>