<svg width="151" height="53" viewBox="0 0 151 53" fill="none" xmlns="http://www.w3.org/2000/svg"><path d="M8.80114 10.3334C8.31904 8.31103 9.30393 6.42498 10.3298 4.89638C11.4591 3.21352 13.3433 1.72189 15.4476 1.18555C15.0653 3.0935 13.9511 4.73926 12.8786 6.28654C11.8134 7.82374 10.4698 9.3806 8.80114 10.3334Z" fill="#BBC3CF"></path><path d="M7.33334 14.2123C7.70968 12.6108 7.70134 10.8574 7.34306 9.35522C7.02801 8.03503 6.56957 6.16878 5.06072 5.53906C3.96397 7.29724 3.5231 9.6915 4.16229 11.4855C4.62446 12.7832 5.45562 14.4989 7.17937 14.7645C8.7611 15.1289 10.3605 14.2857 11.6237 13.5895C13.0283 12.8154 14.4041 11.584 15.24 10.12C13.7066 9.34651 11.9603 9.97423 10.6465 10.5758C9.23037 11.2243 7.92943 12.6157 7.33334 14.2123Z" fill="#BBC3CF"></path><path d="M2.46291 18.5345C3.24075 19.7205 4.4444 21.206 6.19941 21.1637C7.79534 21.2434 9.17413 20.1549 10.2599 19.2464C11.4293 18.268 12.4848 16.8371 12.9304 15.2902C11.2981 14.8156 9.73534 15.6948 8.56994 16.5241C7.35297 17.3903 6.41704 18.9754 6.21597 20.603C6.2009 18.9724 5.75928 17.2883 5.04734 15.9316C4.39643 14.6913 3.4894 13.0148 1.87118 12.6797C1.2336 14.6096 1.43703 16.9708 2.46291 18.5345Z" fill="#BBC3CF"></path><path d="M6.71812 27.5508C5.0893 27.8235 3.50048 26.8262 2.46862 25.653C1.14016 24.1426 0.349727 22.1164 0.510927 20.0879C2.18422 20.1303 3.45152 21.5759 4.3882 22.669C5.397 23.8463 6.22356 25.3952 6.62008 26.993C6.44568 25.4007 6.9806 23.6812 7.97359 22.6187C8.93207 21.5931 10.2747 20.4753 11.9453 20.6547C11.9093 22.2694 11.0994 23.8077 10.2641 24.9598C9.48555 26.0335 8.28615 27.3615 6.71812 27.5508Z" fill="#BBC3CF"></path><path d="M3.7095 32.9167C5.20963 33.8928 7.02905 34.8589 8.94115 34.1277C10.5098 33.573 11.5071 31.995 12.1206 30.5466C12.7703 29.0119 13.2044 27.2422 12.9039 25.5625C11.1801 25.7154 9.75076 26.9479 8.9916 28.4525C8.19794 30.0254 8.0457 31.8977 8.65537 33.5468C7.75457 31.8502 6.43719 30.4775 5.04171 29.2091C3.77316 28.0561 1.94589 26.8415 0.105423 27.0699C0.455603 29.3439 1.84412 31.7031 3.7095 32.9167Z" fill="#BBC3CF"></path><path d="M12.805 40.2742C14.2812 39.3922 14.8753 37.5365 15.1181 35.9462C15.3798 34.2312 15.3686 32.3398 14.6559 30.7129C12.9433 31.191 11.7677 32.7315 11.3795 34.4189C10.9694 36.2016 11.3154 38.1016 12.313 39.6195C10.9869 38.0989 9.22359 36.8435 7.53373 35.9632C5.90142 35.1128 3.89888 34.0872 1.93857 34.7066C2.88384 37.0122 4.90594 39.1588 7.14705 40.0467C8.88262 40.7342 10.994 41.4141 12.805 40.2742Z" fill="#BBC3CF"></path><path d="M19.8034 40.8718C20.02 42.5272 20.0139 44.6267 18.7279 45.9009C17.1209 47.5447 14.6339 47.2275 12.7157 46.8658C10.1405 46.3799 7.24161 44.6246 5.68791 42.2874C7.58544 41.2432 9.90614 41.9111 11.7847 42.4518L11.892 42.4826C13.989 43.0855 16.2236 44.0566 18.0925 45.3836C16.601 44.0367 15.5144 42.0599 15.4612 40.0674C15.4134 38.2853 16.1873 36.3788 17.8529 35.5293C19.0157 37.0545 19.5602 39.0128 19.8034 40.8718Z" fill="#BBC3CF"></path><path d="M27.268 50.5891C28.2151 48.7875 27.2768 46.673 26.5291 45.1102C25.6451 43.2626 24.4373 41.3797 22.7089 40.0273C21.0491 41.4568 21.207 43.5022 21.7004 45.2799C22.2872 47.3935 24.3213 49.1952 26.4278 50.222C23.9882 49.3128 21.324 48.7671 18.7891 48.606L18.5324 48.5894C16.4959 48.4568 13.8448 48.2843 12.2221 49.7737C14.6756 51.8582 18.1606 53.0608 21.2321 52.9983C23.2905 52.9565 26.1146 52.7131 27.268 50.5891Z" fill="#BBC3CF"></path><path d="M42.7947 8.36759C42.7446 5.77892 44.3646 4.17561 46.9533 4.17561C49.3248 4.17561 51.0116 5.5618 51.0116 7.76635C51.0116 9.33625 50.0931 10.6222 48.2226 11.5408L46.4355 12.426C45.7508 12.7767 44.9491 13.3779 44.9491 14.0794H50.9949V16H42.7947L42.778 14.4802C42.7613 12.6264 44.0306 11.4072 45.4669 10.689L47.3374 9.77048C48.3228 9.28615 48.7904 8.63481 48.7904 7.74965C48.7904 6.74758 48.0723 5.99603 46.97 5.99603C45.7007 5.99603 44.9825 6.93129 45.0159 8.36759H42.7947ZM56.7741 16.1336C53.8681 16.1336 52.532 14.1295 52.532 10.5554V9.75378C52.532 6.17974 53.8681 4.17561 56.7741 4.17561H57.4254C60.3481 4.17561 61.6675 6.17974 61.6675 9.75378V10.5554C61.6675 14.1295 60.3481 16.1336 57.4254 16.1336H56.7741ZM57.3419 14.213C58.6613 14.213 59.4629 13.1942 59.4629 11.14V9.16924C59.4629 7.0983 58.6613 6.07954 57.3419 6.07954H56.8743C55.5549 6.07954 54.7365 7.0983 54.7365 9.16924V11.14C54.7365 13.1942 55.5549 14.213 56.8743 14.213H57.3419ZM67.5058 16.1336C64.5998 16.1336 63.2637 14.1295 63.2637 10.5554V9.75378C63.2637 6.17974 64.5998 4.17561 67.5058 4.17561H68.1572C71.0799 4.17561 72.3993 6.17974 72.3993 9.75378V10.5554C72.3993 14.1295 71.0799 16.1336 68.1572 16.1336H67.5058ZM68.0737 14.213C69.3931 14.213 70.1947 13.1942 70.1947 11.14V9.16924C70.1947 7.0983 69.3931 6.07954 68.0737 6.07954H67.606C66.2866 6.07954 65.4683 7.0983 65.4683 9.16924V11.14C65.4683 13.1942 66.2866 14.213 67.606 14.213H68.0737ZM73.7528 13.8456H75.9908V16H73.7528V13.8456ZM81.5974 16.1336C78.6914 16.1336 77.3553 14.1295 77.3553 10.5554V9.75378C77.3553 6.17974 78.6914 4.17561 81.5974 4.17561H82.2487C85.1714 4.17561 86.4908 6.17974 86.4908 9.75378V10.5554C86.4908 14.1295 85.1714 16.1336 82.2487 16.1336H81.5974ZM82.1652 14.213C83.4846 14.213 84.2863 13.1942 84.2863 11.14V9.16924C84.2863 7.0983 83.4846 6.07954 82.1652 6.07954H81.6976C80.3782 6.07954 79.5599 7.0983 79.5599 9.16924V11.14C79.5599 13.1942 80.3782 14.213 81.6976 14.213H82.1652ZM92.3292 16.1336C89.4232 16.1336 88.0871 14.1295 88.0871 10.5554V9.75378C88.0871 6.17974 89.4232 4.17561 92.3292 4.17561H92.9805C95.9032 4.17561 97.2226 6.17974 97.2226 9.75378V10.5554C97.2226 14.1295 95.9032 16.1336 92.9805 16.1336H92.3292ZM92.897 14.213C94.2164 14.213 95.018 13.1942 95.018 11.14V9.16924C95.018 7.0983 94.2164 6.07954 92.897 6.07954H92.4294C91.11 6.07954 90.2916 7.0983 90.2916 9.16924V11.14C90.2916 13.1942 91.11 14.213 92.4294 14.213H92.897ZM103.061 16.1336C100.155 16.1336 98.8189 14.1295 98.8189 10.5554V9.75378C98.8189 6.17974 100.155 4.17561 103.061 4.17561H103.712C106.635 4.17561 107.954 6.17974 107.954 9.75378V10.5554C107.954 14.1295 106.635 16.1336 103.712 16.1336H103.061ZM103.629 14.213C104.948 14.213 105.75 13.1942 105.75 11.14V9.16924C105.75 7.0983 104.948 6.07954 103.629 6.07954H103.161C101.842 6.07954 101.023 7.0983 101.023 9.16924V11.14C101.023 13.1942 101.842 14.213 103.161 14.213H103.629ZM59.9049 35.1336C57.1659 35.1336 55.3121 33.6138 55.3121 30.7746V23.3092H57.383V30.7913C57.383 32.3946 58.4185 33.1963 59.9049 33.1963C61.3913 33.1963 62.4267 32.3946 62.4267 30.7913V23.3092H64.481V30.7746C64.481 33.6138 62.6271 35.1336 59.9049 35.1336ZM69.3886 35.1336C67.301 35.1336 66.0484 34.048 65.9148 32.2109H67.7185C67.802 33.046 68.4367 33.547 69.3886 33.547C70.2237 33.547 70.7915 33.1629 70.7915 32.5449C70.7915 30.7579 66.1486 32.4113 66.1486 29.0043C66.1486 27.4845 67.4179 26.449 69.1715 26.449C71.209 26.449 72.4449 27.4845 72.5451 29.1379H70.7414C70.6412 28.4198 70.04 27.9521 69.2216 27.9521C68.5035 27.9521 67.9356 28.2862 67.9356 28.9208C67.9356 30.7078 72.6286 28.9041 72.6286 32.3946C72.6286 34.1148 71.3761 35.1336 69.3886 35.1336ZM78.0201 35.1336C75.2644 35.1336 73.7446 32.9625 73.7446 30.7579C73.7446 28.5367 75.1141 26.449 77.8698 26.449C80.6756 26.449 81.9449 28.5033 81.9449 30.5074C81.9449 30.7913 81.9282 31.0585 81.9115 31.2255H75.732C75.8991 32.5616 76.7341 33.4301 78.0201 33.4301C79.0723 33.4301 79.7737 32.9959 79.9741 32.1942H81.9783C81.6776 33.9812 80.1077 35.1336 78.0201 35.1336ZM75.7821 29.8227H79.9073C79.8238 28.7538 79.089 28.0022 77.8698 28.0022C76.7341 28.0022 76.016 28.6369 75.7821 29.8227ZM83.5748 35V26.5826H85.629V28.069C86.0465 27.0002 86.6979 26.5826 87.7835 26.5826H88.7688V28.3029H87.4494C86.1301 28.3029 85.629 29.4218 85.629 31.0251V35H83.5748ZM92.7441 35.1336C90.6564 35.1336 89.4039 34.048 89.2703 32.2109H91.074C91.1575 33.046 91.7921 33.547 92.7441 33.547C93.5791 33.547 94.147 33.1629 94.147 32.5449C94.147 30.7579 89.5041 32.4113 89.5041 29.0043C89.5041 27.4845 90.7734 26.449 92.527 26.449C94.5645 26.449 95.8004 27.4845 95.9006 29.1379H94.0969C93.9967 28.4198 93.3954 27.9521 92.5771 27.9521C91.8589 27.9521 91.2911 28.2862 91.2911 28.9208C91.2911 30.7078 95.9841 28.9041 95.9841 32.3946C95.9841 34.1148 94.7315 35.1336 92.7441 35.1336Z" fill="#5F6979"></path><path d="M140.797 4.90053C141.821 6.43013 142.804 8.31706 142.321 10.3392C140.653 9.38498 139.311 7.827 138.247 6.28893C137.175 4.74054 136.063 3.09403 135.682 1.18555C137.786 1.72343 139.67 3.21654 140.797 4.90053Z" fill="#BBC3CF"></path><path d="M143.786 14.2211C143.191 12.6232 141.891 11.23 140.475 10.5802C139.161 9.97754 137.416 9.34864 135.882 10.1208C136.717 11.5856 138.091 12.8181 139.495 13.5933C140.757 14.2903 142.355 15.1347 143.938 14.7718C145.662 14.5078 146.495 12.7923 146.959 11.4946C147.6 9.70125 147.162 7.30632 146.067 5.54688C144.557 6.17577 144.096 8.04167 143.781 9.36184C143.421 10.8645 143.411 12.6186 143.786 14.2211Z" fill="#BBC3CF"></path><path d="M142.546 16.5277C143.762 17.3943 144.695 18.9787 144.896 20.6053C144.913 18.9755 145.357 17.2928 146.07 15.9374C146.721 14.6975 147.631 13.0216 149.249 12.6875C149.884 14.6181 149.679 16.9795 148.651 18.5424C147.874 19.7264 146.67 21.2089 144.918 21.1692C143.32 21.2507 141.94 20.1596 140.853 19.2491C139.685 18.2696 138.631 16.8379 138.187 15.2906C139.819 14.817 141.381 15.6975 142.546 16.5277Z" fill="#BBC3CF"></path><path d="M144.484 27.0066C144.662 25.4128 144.129 23.6896 143.134 22.6249C142.178 21.5984 140.836 20.4796 139.165 20.6578C139.199 22.2725 140.007 23.8117 140.842 24.9646C141.62 26.0385 142.817 27.3666 144.384 27.558C146.014 27.8338 147.605 26.8368 148.639 25.6637C149.968 24.1543 150.76 22.1285 150.602 20.0996C148.928 20.1409 147.659 21.5855 146.721 22.6779C145.71 23.8561 144.881 25.4068 144.484 27.0066Z" fill="#BBC3CF"></path><path d="M142.112 28.4577C142.904 30.0316 143.055 31.9043 142.444 33.5531C143.346 31.8567 144.665 30.4847 146.061 29.2171C147.331 28.0649 149.16 26.8518 151 27.0815C150.649 29.3555 149.257 31.7138 147.391 32.9261C145.891 33.8997 144.073 34.8639 142.163 34.1357C140.592 33.582 139.594 32.0006 138.981 30.5496C138.332 29.0142 137.9 27.2442 138.203 25.5645C139.926 25.7187 141.355 26.9525 142.112 28.4577Z" fill="#BBC3CF"></path><path d="M138.782 39.6223C139.779 38.1058 140.126 36.2075 139.719 34.4256C139.333 32.7377 138.158 31.1962 136.445 30.7168C135.731 32.3431 135.719 34.2346 135.978 35.95C136.219 37.5373 136.81 39.3895 138.278 40.2748C140.09 41.4237 142.207 40.7442 143.945 40.0569C146.187 39.1705 148.212 37.0252 149.159 34.7199C147.199 34.0992 145.196 35.1234 143.562 35.9726C141.873 36.8512 140.109 38.1042 138.782 39.6223Z" fill="#BBC3CF"></path><path d="M131.287 40.871C131.069 42.5261 131.073 44.6257 132.358 45.901C133.963 47.5463 136.451 47.2308 138.369 46.8704C140.946 46.3864 143.846 44.6328 145.402 42.2968C143.506 41.2512 141.184 41.9172 139.305 42.4565L139.197 42.4874C137.1 43.0885 134.865 44.0577 132.995 45.3827C134.487 44.0369 135.575 42.0616 135.63 40.0697C135.68 38.2876 134.907 36.3802 133.243 35.5293C132.078 37.0538 131.532 39.0119 131.287 40.871Z" fill="#BBC3CF"></path><path d="M129.848 52.9963C127.79 52.9529 124.966 52.7074 123.815 50.5823L123.799 50.5532C122.879 48.7569 123.814 46.6574 124.559 45.1037C125.444 43.2566 126.654 41.3744 128.383 40.0234C130.043 41.4542 129.882 43.4996 129.387 45.2769C128.798 47.3903 126.762 49.1909 124.654 50.216C127.095 49.3086 129.76 48.7649 132.295 48.6055L132.553 48.5891C134.59 48.4581 137.241 48.2877 138.862 49.7781C136.407 51.8607 132.921 53.0611 129.848 52.9963Z" fill="#BBC3CF"></path><path d="M52.3989 47.4955L50.5911 49.2566L51.018 51.7441C51.0366 51.8528 50.9919 51.9628 50.9025 52.0277C50.852 52.0646 50.7919 52.0831 50.7319 52.0831C50.6857 52.0831 50.6393 52.0721 50.5969 52.0498L48.3616 50.8754L46.1266 52.0495C46.0291 52.1011 45.9104 52.0927 45.821 52.0275C45.7316 51.9625 45.6869 51.8526 45.7055 51.7438L46.1324 49.2563L44.3243 47.4955C44.2454 47.4183 44.2166 47.3029 44.2509 47.1982C44.2851 47.0935 44.376 47.0166 44.4854 47.0006L46.9839 46.6381L48.1013 44.3751C48.1991 44.177 48.5241 44.177 48.6219 44.3751L49.7393 46.6381L52.2378 47.0006C52.3472 47.0166 52.4381 47.0932 52.4723 47.1982C52.5066 47.3032 52.4778 47.418 52.3989 47.4955Z" fill="#2660F5"></path><path d="M65.6432 47.4955L63.8354 49.2566L64.2624 51.7441C64.2809 51.8528 64.2362 51.9628 64.1468 52.0277C64.0963 52.0646 64.0363 52.0831 63.9762 52.0831C63.93 52.0831 63.8836 52.0721 63.8412 52.0498L61.6059 50.8754L59.3709 52.0495C59.2734 52.1011 59.1547 52.0927 59.0653 52.0275C58.9759 51.9625 58.9312 51.8526 58.9498 51.7438L59.3767 49.2563L57.5686 47.4955C57.4897 47.4183 57.461 47.3029 57.4952 47.1982C57.5295 47.0935 57.6203 47.0166 57.7297 47.0006L60.2283 46.6381L61.3456 44.3751C61.4434 44.177 61.7685 44.177 61.8663 44.3751L62.9836 46.6381L65.4822 47.0006C65.5916 47.0166 65.6824 47.0932 65.7167 47.1982C65.7509 47.3032 65.7222 47.418 65.6432 47.4955Z" fill="#2660F5"></path><path d="M78.8895 47.4955L77.0817 49.2566L77.5087 51.7441C77.5272 51.8528 77.4825 51.9628 77.3931 52.0277C77.3427 52.0646 77.2826 52.0831 77.2225 52.0831C77.1764 52.0831 77.1299 52.0721 77.0875 52.0498L74.8522 50.8754L72.6172 52.0495C72.5197 52.1011 72.401 52.0927 72.3116 52.0275C72.2222 51.9625 72.1776 51.8526 72.1961 51.7438L72.623 49.2563L70.815 47.4955C70.736 47.4183 70.7073 47.3029 70.7415 47.1982C70.7758 47.0935 70.8666 47.0166 70.976 47.0006L73.4746 46.6381L74.5919 44.3751C74.6897 44.177 75.0148 44.177 75.1126 44.3751L76.2299 46.6381L78.7285 47.0006C78.8379 47.0166 78.9287 47.0932 78.963 47.1982C78.9972 47.3032 78.9685 47.418 78.8895 47.4955Z" fill="#2660F5"></path><path d="M92.1339 47.4955L90.3261 49.2566L90.753 51.7441C90.7716 51.8528 90.7269 51.9628 90.6375 52.0277C90.587 52.0646 90.5269 52.0831 90.4669 52.0831C90.4207 52.0831 90.3743 52.0721 90.3319 52.0498L88.0966 50.8754L85.8616 52.0495C85.7641 52.1011 85.6454 52.0927 85.556 52.0275C85.4666 51.9625 85.4219 51.8526 85.4405 51.7438L85.8674 49.2563L84.0593 47.4955C83.9804 47.4183 83.9516 47.3029 83.9859 47.1982C84.0201 47.0935 84.111 47.0166 84.2204 47.0006L86.7189 46.6381L87.8363 44.3751C87.9341 44.177 88.2591 44.177 88.3569 44.3751L89.4743 46.6381L91.9728 47.0006C92.0822 47.0166 92.1731 47.0932 92.2073 47.1982C92.2416 47.3032 92.2128 47.418 92.1339 47.4955Z" fill="#2660F5"></path><path d="M105.378 47.4955L103.57 49.2566L103.997 51.7441C104.016 51.8528 103.971 51.9628 103.882 52.0277C103.831 52.0646 103.771 52.0831 103.711 52.0831C103.665 52.0831 103.619 52.0721 103.576 52.0498L101.341 50.8754L99.1059 52.0495C99.0084 52.1011 98.8897 52.0927 98.8003 52.0275C98.711 51.9625 98.6663 51.8526 98.6848 51.7438L99.1118 49.2563L97.3037 47.4955C97.2247 47.4183 97.196 47.3029 97.2302 47.1982C97.2645 47.0935 97.3553 47.0166 97.4647 47.0006L99.9633 46.6381L101.081 44.3751C101.178 44.177 101.503 44.177 101.601 44.3751L102.719 46.6381L105.217 47.0006C105.327 47.0166 105.417 47.0932 105.452 47.1982C105.486 47.3032 105.457 47.418 105.378 47.4955Z" fill="#2660F5"></path></svg>